<svg xmlns="http://www.w3.org/2000/svg" viewBox="0 0 59.42 62"><defs><style>.cls-1{fill:#d6fce5;}.cls-2{fill:#00c45d;}</style></defs><title>Asset 5</title><g id="Layer_2" data-name="Layer 2"><g id="Layer_1-2" data-name="Layer 1"><path class="cls-1" d="M30.17,0h0C24.43,0,5.19,21,.31,28.91A2,2,0,0,0,2,32H8.16a2,2,0,0,1,2,2V59.68A2.32,2.32,0,0,0,12.5,62H46.85a2.32,2.32,0,0,0,2.32-2.32V34a2,2,0,0,1,2-2h6.21a2,2,0,0,0,1.77-3C54.59,21.09,36,0,30.17,0Z"/><rect class="cls-2" x="20.71" y="35" width="18" height="23"/></g></g></svg>